{"title":"Real Sluty Party - Rainia Belle Orgy at the Gym","uid":11069565,"size":153235088,"categoryP":"porn","categoryS":"movie_clips","magnet":"?xt=urn:btih:80681b6a6de650f7cee34bc2cff66579318819d5&amp;dn=Real+Sluty+Party+-+Rainia+Belle+Orgy+at+the+Gym&amp;tr=udp%3A%2F%2Ftracker.openbittorrent.com%3A80&amp;tr=udp%3A%2F%2Fopen.demonii.com%3A1337&amp;tr=udp%3A%2F%2Ftracker.coppersurfer.tk%3A6969&amp;tr=udp%3A%2F%2Fexodus.desync.com%3A6969","seeders":0,"leechers":0,"uploader":"supertongo","files":1,"time":1411249668,"description":"Real Sluty Party - Rainia Belle Orgy at the Gym\n\n:::Media info:::\n\nGeneral\nFormat                         : MPEG-4\nFormat profile                 : Base Media\nCodec ID                       : isom\nFile size                      : 146 MiB\nDuration                       : 25mn 1s\nOverall bit rate               : 817 Kbps\n\n\nVideo\nID                             : 1\nFormat                         : AVC\nFormat/Info                    : Advanced Video Codec\nFormat profile                 : &lt;a class=&quot;__cf_email__&quot; href=&quot;/cdn-cgi/l/email-protection&quot; data-cfemail=&quot;ca88abb9afa6a3a4af8a86f8e4fb&quot;&gt;[email&amp;#160;protected]&lt;/a&gt;&lt;script data-cfhash='f9e31' type=&quot;text/javascript&quot;&gt;\n/* &lt;![CDATA[ */!function(){try{var t=&quot;currentScript&quot;in document?document.currentScript:function(){for(var t=document.getElementsByTagName(&quot;script&quot;),e=t.length;e--;)if(t[e].getAttribute(&quot;data-cfhash&quot;))return t[e]}();if(t&amp;&amp;t.previousSibling){var e,r,n,i,c=t.previousSibling,a=c.getAttribute(&quot;data-cfemail&quot;);if(a){for(e=&quot;&quot;,r=parseInt(a.substr(0,2),16),n=2;a.length-n;n+=2)i=parseInt(a.substr(n,2),16)^r,e+=String.fromCharCode(i);e=document.createTextNode(e),c.parentNode.replaceChild(e,c)}t.parentNode.removeChild(t);}}catch(u){}}()/* ]]&gt; */&lt;/script&gt;\nFormat settings, CABAC         : No\nFormat settings, ReFrames      : 5 frames\nCodec ID                       : avc1\nCodec ID/Info                  : Advanced Video Coding\nDuration                       : 25mn 1s\nBit rate                       : 650 Kbps\nWidth                          : 480 pixels\nHeight                         : 272 pixels\nDisplay aspect ratio           : 16:9\nOriginal display aspect ratio  : 16:9\nFrame rate mode                : Constant\nFrame rate                     : 23.976 fps\nColor space                    : YUV\nChroma subsampling             : 4:2:0\nBit depth                      : 8 bits\nScan type                      : Progressive\nBits/(Pixel*Frame)             : 0.208\nStream size                    : 116 MiB (80%)\n\nAudio\nID                             : 2\nFormat                         : AAC\nFormat/Info                    : Advanced Audio Codec\nFormat profile                 : LC\nCodec ID                       : 40\nDuration                       : 25mn 1s\nDuration_LastFrame             : -9ms\nBit rate mode                  : Constant\nBit rate                       : 128 Kbps\nChannel(s)                     : 2 channels\nChannel positions              : Front: L R\nSampling rate                  : 48.0 KHz\nCompression mode               : Lossy\nStream size                    : 22.9 MiB (16%)\n\n\n &lt;a href=&quot;\nhttp://bayimg.com/GaAfKaAgi&quot; rel=&quot;nofollow&quot; target=&quot;_NEW&quot;&gt;\nhttp://bayimg.com/GaAfKaAgi&lt;/a&gt;\n\n","torrent":{"xt":"urn:btih:80681b6a6de650f7cee34bc2cff66579318819d5","amp;dn":"Real+Sluty+Party+-+Rainia+Belle+Orgy+at+the+Gym","amp;tr":["udp%3A%2F%2Ftracker.openbittorrent.com%3A80","udp%3A%2F%2Fopen.demonii.com%3A1337","udp%3A%2F%2Ftracker.coppersurfer.tk%3A6969","udp%3A%2F%2Fexodus.desync.com%3A6969"],"infoHash":"80681b6a6de650f7cee34bc2cff66579318819d5","infoHashBuffer":{"type":"Buffer","data":[128,104,27,106,109,230,80,247,206,227,75,194,207,246,101,121,49,136,25,213]},"announce":[],"urlList":[]}}